<?xml version="1.0" standalone="no"?>
<!DOCTYPE svg PUBLIC "-//W3C//DTD SVG 20010904//EN"
 "http://www.w3.org/TR/2001/REC-SVG-20010904/DTD/svg10.dtd">
<svg version="1.0" xmlns="http://www.w3.org/2000/svg"
 width="724.000000pt" height="765.000000pt" viewBox="0 0 724.000000 765.000000"
 preserveAspectRatio="xMidYMid meet">

<g transform="translate(0.000000,765.000000) scale(0.100000,-0.100000)"
fill="#000000" stroke="none">
<path d="M6385 7370 c-31 -12 -43 -31 -60 -96 -60 -231 -153 -445 -247 -568
-34 -45 -77 -101 -96 -126 -18 -25 -39 -52 -45 -60 -54 -69 -71 -99 -89 -148
-55 -162 -170 -344 -257 -408 -104 -76 -234 -123 -297 -108 -44 10 -86 36
-117 71 -66 74 -149 153 -174 167 -16 7 -63 20 -106 27 -73 12 -78 12 -105 -7
-20 -16 -29 -34 -36 -72 -11 -59 -32 -68 -63 -29 -10 13 -28 29 -41 36 -12 6
-38 36 -57 66 -19 30 -39 55 -44 55 -11 0 -44 -45 -54 -72 -5 -15 -14 -17 -50
-12 -56 8 -65 -10 -37 -73 25 -56 25 -55 0 -83 -44 -51 -14 -83 68 -73 l51 6
-1 -43 c0 -43 21 -83 56 -104 34 -22 86 69 86 152 0 17 4 32 9 32 5 0 33 -20
61 -44 56 -48 86 -51 76 -10 -7 28 3 30 55 13 65 -22 105 -78 111 -156 3 -31
0 -36 -20 -39 -13 -2 -56 -19 -96 -37 l-72 -34 -169 7 c-178 7 -202 6 -512
-34 -178 -22 -196 -23 -270 -10 -112 21 -151 19 -179 -7 -30 -28 -31 -63 -3
-104 25 -36 56 -52 123 -66 27 -5 54 -16 60 -24 14 -18 78 -45 108 -45 12 0
42 7 66 17 40 15 46 15 79 -1 23 -11 46 -14 69 -10 31 6 34 4 34 -18 0 -13 5
-29 12 -36 17 -17 63 -15 78 3 21 25 48 18 52 -12 5 -43 40 -42 73 1 30 39 45
45 45 19 1 -50 58 -70 91 -32 l19 22 24 -27 c26 -27 64 -34 83 -15 9 9 21 8
46 -5 19 -9 51 -16 71 -16 33 0 37 -4 63 -56 32 -65 66 -96 102 -92 21 2 27 9
29 36 4 38 13 40 52 11 33 -25 60 -19 60 12 0 23 5 23 68 -2 24 -10 37 -11 50
-3 11 8 28 8 51 1 20 -5 53 -7 74 -4 45 6 67 0 67 -17 0 -7 -55 -23 -137 -40
-76 -16 -165 -35 -198 -42 -33 -8 -154 -34 -270 -59 -115 -25 -259 -57 -320
-70 -148 -32 -462 -99 -557 -120 -43 -9 -90 -15 -104 -13 -29 3 -19 -18 -184
383 -31 77 -107 261 -169 409 -61 148 -111 275 -111 282 0 17 -49 18 -102 4
-20 -6 -83 -19 -139 -29 -113 -21 -115 -23 -197 -138 -13 -18 -29 -33 -36 -33
-7 0 -39 28 -72 63 -80 84 -190 186 -304 281 -52 44 -97 82 -100 85 -3 3 -12
11 -22 16 -48 29 -223 151 -226 158 -2 4 -7 7 -12 7 -4 0 -39 19 -76 42 -38
23 -128 76 -201 119 -122 71 -209 132 -274 190 -23 21 -89 147 -154 297 -11
23 -24 41 -29 38 -15 -5 -14 -9 59 -162 36 -75 65 -140 65 -145 0 -12 109
-106 165 -143 28 -18 84 -55 125 -81 41 -27 76 -52 78 -57 2 -4 11 -8 19 -8
22 0 339 -195 414 -254 14 -12 43 -34 65 -51 120 -93 171 -137 282 -242 67
-63 122 -121 122 -127 0 -6 -14 -19 -30 -28 -30 -17 -40 -38 -19 -38 6 0 24
10 41 21 l30 22 21 -22 c19 -18 22 -35 25 -125 l4 -104 -27 -18 c-16 -10 -41
-36 -56 -58 -36 -48 -39 -113 -9 -171 11 -22 20 -41 20 -42 0 -18 -192 77
-226 111 -35 34 -64 128 -64 206 l0 69 -147 99 c-82 54 -155 101 -163 104 -25
9 -60 -10 -72 -39 -7 -19 -10 -116 -9 -292 l2 -264 43 -38 c49 -43 106 -146
131 -234 39 -142 54 -163 157 -215 196 -99 205 -105 218 -161 15 -63 5 -78
-37 -56 -50 27 -94 37 -169 37 l-72 0 -13 -50 c-15 -60 -21 -61 -137 -21 -112
39 -184 83 -264 161 -50 51 -70 78 -81 115 -8 28 -34 102 -57 165 -174 479
-171 471 -159 508 7 23 8 37 1 44 -13 13 -36 -55 -29 -90 4 -26 49 -157 122
-357 20 -55 43 -118 50 -140 8 -22 23 -67 35 -99 25 -70 21 -76 -60 -76 -83 0
-190 37 -190 67 0 6 6 13 13 16 9 3 9 8 1 17 -9 9 -15 7 -27 -11 l-16 -22 -39
27 c-64 44 -95 86 -130 176 -87 223 -112 295 -112 316 0 31 -16 31 -24 -1 -6
-22 32 -132 90 -262 49 -110 55 -158 22 -167 -39 -10 -156 -7 -164 5 -3 6 -1
22 7 35 19 36 2 42 -26 10 l-24 -28 -29 21 c-75 53 -95 89 -131 234 -19 75
-38 137 -43 137 -14 0 -9 -42 17 -135 14 -50 25 -102 25 -118 0 -25 -2 -27
-27 -21 -44 11 -130 51 -138 64 -4 6 -2 23 6 36 16 31 1 46 -18 17 -9 -13 -19
-23 -24 -23 -23 0 -94 93 -134 175 -72 145 -105 313 -105 531 0 132 29 358 65
502 40 165 29 330 -40 555 -30 102 -138 337 -179 392 -30 41 -28 3 3 -52 139
-253 197 -437 208 -660 5 -104 2 -147 -10 -200 -56 -236 -62 -288 -62 -543 1
-220 3 -255 24 -340 23 -98 68 -206 114 -273 30 -44 94 -117 103 -117 3 0 20
-11 38 -25 40 -31 94 -53 154 -65 35 -6 59 -20 94 -54 77 -74 119 -91 218 -91
48 1 95 6 107 13 20 11 27 8 71 -31 109 -97 233 -144 348 -132 l60 7 74 -76
c40 -42 79 -76 86 -76 7 0 14 -6 17 -12 2 -9 -77 -33 -267 -80 -149 -37 -279
-68 -288 -68 -9 0 -19 -4 -23 -9 -3 -5 22 -78 56 -163 59 -147 76 -175 161
-270 l33 -37 94 25 c52 13 97 22 100 19 3 -3 -38 -49 -91 -103 -225 -228 -353
-472 -404 -772 -20 -114 -14 -355 10 -464 42 -186 133 -386 248 -541 103 -139
286 -311 428 -401 74 -47 80 -50 205 -112 222 -110 383 -157 660 -193 396 -52
811 17 1180 196 l130 64 6 -37 c4 -20 22 -72 41 -114 l35 -78 189 121 c104 66
196 127 205 135 8 8 20 14 26 14 5 0 17 8 26 18 13 15 15 25 7 53 -15 50 -13
56 17 63 17 5 31 2 41 -8 13 -13 13 -19 -2 -49 -39 -84 1 -158 93 -173 39 -6
43 -4 84 38 24 25 49 63 56 85 7 21 22 43 34 49 11 5 25 23 30 39 6 17 16 35
23 40 7 6 14 24 16 40 3 27 0 30 -25 28 -17 -1 -47 10 -74 28 -53 33 -70 35
-101 13 -19 -13 -22 -24 -22 -75 0 -57 1 -60 23 -57 22 3 24 10 15 63 -2 14 3
20 17 20 17 0 20 -7 20 -57 0 -32 5 -62 13 -69 12 -13 17 -39 6 -39 -3 0 -18
10 -33 22 -15 13 -40 32 -55 43 -15 11 -55 41 -88 68 -32 26 -61 47 -63 47 -2
0 -12 -16 -21 -35 -14 -30 -34 -47 -34 -30 0 3 -12 48 -26 102 -14 54 -21 99
-16 102 27 18 118 164 171 276 170 355 173 748 7 1119 -23 51 -129 231 -146
246 -25 23 -80 102 -80 114 0 9 -5 16 -11 16 -6 0 -49 36 -96 80 -46 44 -114
101 -151 127 -37 26 -69 50 -72 53 -3 4 -21 15 -40 26 -19 10 -37 22 -40 25
-3 4 -32 21 -65 38 -33 18 -67 36 -75 41 -23 13 -152 67 -178 75 -20 6 -23 12
-20 48 4 49 -18 41 313 112 61 12 153 33 205 45 52 12 115 25 140 30 25 5 106
23 180 40 74 18 176 40 225 50 50 10 117 25 150 34 34 8 106 24 162 35 56 11
139 30 186 42 l85 21 6 71 c4 40 9 88 12 108 4 30 -1 43 -32 85 -118 154 -139
181 -161 206 -22 22 -24 32 -18 67 4 23 9 41 12 41 3 0 18 -9 34 -20 42 -30
79 -6 79 51 0 26 24 25 166 -6 64 -14 117 -25 119 -25 2 0 1 -22 -2 -48 -5
-42 -2 -55 23 -92 25 -38 28 -51 25 -99 -13 -184 -2 -253 42 -267 23 -7 67 14
67 33 0 23 25 14 48 -17 31 -42 72 -41 105 2 l25 31 27 -21 c15 -12 38 -22 51
-22 23 0 64 42 64 66 0 20 8 17 47 -16 18 -16 42 -30 51 -30 24 0 62 28 62 46
0 17 23 18 51 3 11 -5 39 -11 62 -11 34 0 46 5 69 31 27 31 29 31 58 16 65
-34 120 -8 120 57 0 32 4 41 21 45 15 4 19 12 17 32 -2 21 3 28 26 37 42 15
53 37 37 68 -17 31 -8 56 19 56 37 0 53 33 57 117 2 53 -1 80 -10 85 -9 6 -9
12 1 28 18 29 15 74 -7 94 -18 16 -43 17 -328 10 -230 -5 -327 -4 -379 5 -90
17 -154 40 -154 57 0 8 5 14 10 14 6 0 10 7 10 15 0 12 13 15 59 15 33 0 63 5
67 11 4 7 22 9 48 5 49 -8 86 16 86 53 0 12 6 23 13 25 6 2 33 9 58 16 36 9
53 20 70 48 14 21 34 37 48 39 29 4 50 30 51 60 0 15 8 23 29 28 72 16 93 93
49 184 -17 36 -19 46 -8 49 24 8 60 50 60 69 0 10 -7 29 -16 41 -16 23 -12 42
10 42 20 0 46 34 46 60 0 13 -10 34 -22 48 -22 22 -22 24 -4 34 46 26 56 46
56 113 0 36 4 65 8 65 16 0 42 59 42 94 0 20 -7 53 -16 75 -14 36 -14 42 0 70
9 16 16 46 16 66 0 28 -5 38 -25 47 -20 9 -25 18 -25 49 0 26 -7 44 -25 60
-13 13 -27 38 -31 56 -9 45 -38 73 -78 73 -25 0 -38 7 -50 25 -10 16 -26 25
-41 25 -18 0 -25 5 -25 19 0 24 -19 39 -58 47 -27 6 -33 13 -42 48 -18 69 -30
92 -60 115 -32 23 -35 24 -65 11z m46 -30 c27 -15 49 -62 49 -106 0 -42 -33
-103 -277 -511 -24 -40 -43 -76 -43 -80 0 -3 -6 -14 -13 -22 -11 -13 -85 -148
-137 -250 -47 -93 -90 -197 -90 -219 l0 -27 20 25 c11 14 20 29 20 33 0 16
137 282 232 452 25 44 57 103 73 130 15 28 34 57 41 66 8 8 14 18 14 22 0 6
111 188 164 269 26 41 36 48 64 48 55 0 43 -38 -52 -175 -104 -148 -174 -280
-183 -341 -8 -59 14 -58 32 2 22 72 113 243 149 279 6 7 34 47 61 89 43 65 54
76 75 74 32 -4 38 -38 13 -75 -10 -16 -25 -41 -33 -58 -26 -53 -106 -189 -143
-245 -40 -59 -44 -70 -24 -70 12 0 117 149 117 168 0 6 3 12 8 14 4 2 20 28
36 58 66 124 94 160 124 160 30 0 52 -30 52 -69 0 -23 -134 -183 -234 -280
-42 -40 -73 -77 -70 -82 3 -5 12 -5 22 0 22 12 240 235 276 283 34 45 56 41
56 -11 -1 -32 -13 -48 -116 -156 -90 -93 -112 -121 -97 -124 13 -2 50 30 126
110 l109 114 18 -22 c10 -13 16 -32 13 -46 -5 -28 -73 -103 -123 -138 -71 -48
-82 -62 -57 -72 13 -5 80 40 124 84 32 32 53 12 53 -50 0 -61 -30 -90 -122
-122 -38 -12 -68 -26 -68 -31 0 -13 65 -9 103 7 20 8 39 15 42 15 3 0 5 -20 5
-45 0 -63 -29 -80 -127 -79 -91 2 -99 -17 -16 -36 32 -7 68 -20 80 -29 25 -18
30 -50 11 -69 -20 -20 -140 -15 -193 8 -56 24 -67 25 -63 4 2 -9 30 -27 68
-41 73 -28 93 -36 133 -52 40 -16 33 -50 -15 -76 -33 -18 -41 -18 -90 -6 -29
8 -57 17 -63 21 -17 13 -58 16 -62 4 -5 -14 78 -54 111 -54 14 0 28 -4 31 -10
3 -5 17 -10 31 -10 15 0 24 -6 24 -15 0 -8 4 -15 8 -15 9 0 32 -66 32 -92 0
-8 -9 -24 -20 -36 -42 -45 -117 -18 -202 71 -37 38 -49 46 -54 34 -8 -21 53
-87 118 -128 37 -24 48 -37 46 -53 -7 -46 -104 -20 -171 46 -30 31 -47 36 -47
14 0 -16 50 -62 103 -95 33 -20 36 -25 25 -44 -18 -34 -40 -46 -81 -47 -33 0
-45 8 -102 65 -36 36 -68 65 -70 65 -3 0 -5 -9 -5 -19 0 -11 27 -46 60 -79 53
-52 60 -63 54 -87 -4 -15 -13 -29 -22 -32 -23 -9 -79 26 -127 79 -41 46 -65
60 -65 37 0 -5 22 -34 50 -63 27 -29 47 -56 43 -59 -23 -23 -86 3 -169 70 -23
18 -46 33 -53 33 -23 0 -9 -26 30 -54 54 -38 68 -69 44 -96 -24 -27 -30 -26
-75 16 -22 20 -50 44 -62 52 -13 9 -25 18 -28 22 -9 10 -135 69 -175 81 -22 6
-49 15 -61 19 -11 4 -55 11 -97 15 -67 6 -77 5 -77 -9 0 -11 9 -16 33 -16 27
0 80 -10 197 -37 43 -11 169 -80 225 -125 62 -50 63 -51 39 -189 l-17 -96 27
-36 c19 -25 29 -52 33 -92 l6 -56 -54 3 -54 3 -21 60 c-15 42 -27 61 -40 63
-11 1 -35 7 -54 12 -42 11 -106 25 -180 40 -30 7 -71 16 -90 20 -19 4 -60 13
-90 20 -30 6 -64 15 -75 19 -11 5 -51 18 -90 31 -145 46 -259 129 -302 221
-12 26 -24 78 -28 120 -9 101 -21 143 -51 178 -25 30 -76 61 -101 61 -20 0
-15 14 10 25 17 8 22 17 20 46 -2 30 2 38 22 47 18 9 25 19 25 41 0 16 4 32 9
35 12 8 96 -50 122 -82 43 -55 123 -134 153 -149 96 -50 214 -27 354 69 113
77 220 232 283 408 12 36 35 83 51 105 48 67 100 138 175 237 39 52 82 117 96
144 23 45 33 67 71 157 22 51 62 168 76 217 7 25 16 55 21 68 5 13 9 33 9 46
0 14 9 27 23 34 28 14 25 14 48 2z m-1851 -1250 c14 -22 27 -40 31 -40 12 0
99 -93 99 -106 0 -18 -18 -18 -36 1 -28 27 -34 16 -34 -62 0 -62 -5 -85 -21
-113 l-21 -34 -24 27 c-13 16 -24 34 -24 42 0 22 17 61 35 79 27 26 12 29 -57
12 -79 -20 -108 -20 -108 -2 0 8 12 23 28 35 l27 20 -27 49 c-16 28 -28 53
-28 57 0 3 20 3 44 0 l43 -7 16 41 c9 23 20 41 25 41 4 0 18 -18 32 -40z m266
-16 c-9 -33 1 -64 20 -64 8 0 14 -4 14 -10 0 -11 -24 -13 -69 -4 -27 6 -31 11
-31 40 0 23 7 38 22 48 35 25 51 21 44 -10z m18 -112 c2 -4 2 -12 -2 -18 -10
-14 -80 -36 -92 -29 -11 7 -13 38 -3 48 9 10 91 9 97 -1z m-1549 -252 c7 -19
21 -55 33 -80 11 -25 29 -67 40 -95 25 -67 181 -452 197 -490 17 -40 86 -210
128 -315 l34 -85 39 3 c21 2 75 11 119 22 44 10 107 23 140 30 33 7 94 21 137
31 42 11 90 19 107 19 17 0 31 4 31 9 0 5 19 11 43 14 23 3 62 10 87 16 47 12
115 26 190 41 43 8 190 41 275 62 22 5 60 13 85 18 25 5 88 18 140 30 137 31
180 40 226 46 l41 6 67 -85 c36 -47 66 -87 66 -91 0 -8 -104 -34 -345 -86
-162 -34 -278 -62 -303 -71 -13 -5 -33 -9 -45 -9 -12 0 -78 -13 -147 -29 -121
-29 -196 -46 -405 -91 -55 -12 -136 -30 -180 -41 -44 -10 -102 -23 -130 -28
-67 -13 -138 -32 -147 -40 -4 -4 6 -60 22 -126 16 -65 28 -121 25 -123 -2 -2
-18 1 -37 7 -57 18 -205 51 -233 51 -27 0 -42 24 -52 89 l-6 33 -51 -6 c-76
-8 -119 -16 -141 -26 -11 -5 -36 -11 -55 -14 -19 -2 -53 -9 -75 -14 -76 -19
-150 -34 -210 -42 -136 -20 -282 -50 -390 -80 -44 -12 -204 -47 -275 -60 -25
-5 -88 -18 -140 -29 -52 -12 -116 -26 -142 -31 -111 -23 -145 -30 -188 -41
-62 -14 -150 -30 -178 -32 -21 -2 -28 9 -58 83 -19 46 -33 89 -31 94 2 5 37
18 78 27 41 9 130 31 199 49 69 17 166 41 217 52 l92 21 108 -26 c140 -34 200
-40 274 -32 81 10 129 49 129 106 0 37 2 39 43 49 23 6 56 16 73 21 17 5 39 9
49 9 10 0 32 4 49 9 66 20 212 51 239 51 15 0 27 4 27 9 0 5 19 11 43 14 81
10 267 53 267 62 0 6 -163 422 -181 462 -10 23 -19 44 -19 47 0 3 -25 70 -56
148 -31 79 -72 184 -91 233 -19 50 -43 108 -53 130 -10 23 -22 53 -25 68 -8
30 -6 32 110 65 93 27 105 25 120 -18z m-977 -152 c75 -50 140 -96 143 -101 4
-5 10 -41 13 -79 16 -154 51 -207 185 -276 91 -47 107 -52 165 -52 55 0 67 3
90 26 34 35 34 73 -2 177 -29 84 -42 207 -22 207 5 0 10 -10 10 -23 0 -13 9
-42 20 -65 11 -22 20 -46 20 -52 0 -5 4 -18 10 -28 5 -9 23 -57 40 -107 17
-49 35 -99 40 -110 21 -45 160 -436 160 -449 0 -7 -18 -18 -42 -24 -89 -22
-205 -45 -245 -50 -24 -2 -43 -8 -43 -12 0 -4 -19 -10 -42 -13 -24 -3 -66 -10
-95 -17 -57 -12 -43 -17 -217 79 -34 19 -36 35 -4 39 36 5 111 42 130 65 32
36 17 119 -32 181 -44 58 -139 150 -181 176 -63 41 -107 47 -174 24 -45 -15
-58 -16 -78 -5 -24 13 -24 13 -30 244 -8 273 -1 337 35 337 4 0 70 -41 146
-92z m2660 12 c12 -39 27 -76 32 -83 6 -7 20 -25 31 -40 44 -58 177 -139 276
-168 38 -11 42 -16 53 -58 7 -25 14 -54 17 -63 3 -12 -1 -18 -11 -18 -9 0 -16
5 -16 10 0 6 -21 31 -47 57 -37 36 -49 43 -51 30 -2 -9 13 -36 33 -60 l36 -42
-37 -3 c-21 -2 -48 2 -60 9 -13 6 -56 61 -95 120 -39 60 -78 109 -85 109 -21
0 -17 -13 16 -58 17 -23 30 -44 30 -46 0 -2 19 -31 41 -65 23 -34 39 -65 35
-68 -3 -3 -19 0 -35 7 -23 9 -39 30 -67 89 -43 90 -79 141 -100 141 -21 0 -17
-24 12 -83 39 -77 65 -155 53 -163 -6 -3 -17 2 -25 12 -39 50 -74 104 -98 152
-14 28 -33 52 -41 52 -17 0 -17 2 39 -123 29 -64 35 -137 12 -137 -37 0 -100
130 -139 290 -8 29 -20 56 -27 58 -13 5 -11 -47 7 -160 5 -35 4 -38 -19 -38
-35 0 -48 18 -48 67 0 55 -25 59 -35 6 -8 -45 -21 -63 -46 -63 -21 0 -36 24
-47 76 -11 53 -25 52 -42 -4 -13 -39 -19 -47 -40 -47 -23 0 -26 5 -33 63 -5
34 -13 62 -18 62 -5 0 -16 -17 -24 -37 -35 -83 -41 -93 -57 -93 -22 0 -23 21
-3 86 18 60 18 64 2 64 -6 0 -18 -14 -26 -31 -18 -42 -79 -101 -99 -97 -26 5
-25 33 3 66 22 26 34 62 21 62 -3 0 -26 -14 -52 -32 -69 -47 -144 -40 -144 13
0 16 8 19 45 19 24 0 66 4 92 9 48 9 133 22 263 41 195 28 229 37 202 54 -9 5
-240 -22 -253 -29 -4 -3 -50 -10 -101 -15 -51 -5 -122 -14 -158 -20 -219 -34
-271 -40 -338 -40 -113 0 -174 41 -158 106 8 30 44 40 99 26 126 -31 155 -35
203 -24 27 6 101 16 164 22 63 7 138 17 165 23 31 7 137 10 277 9 l226 -3 79
35 c43 20 80 36 84 36 3 0 15 -32 27 -70z m1155 -159 c25 -11 65 -23 90 -26
32 -5 53 -16 71 -36 29 -33 32 -55 11 -83 -23 -30 -18 -42 16 -44 42 -3 48 -8
65 -49 8 -18 24 -37 34 -41 11 -4 28 -23 38 -42 10 -21 33 -43 56 -55 49 -26
54 -39 22 -60 -32 -21 -72 -13 -79 15 -4 15 -13 20 -36 20 -20 0 -34 7 -41 20
-14 26 -30 25 -61 -4 -30 -28 -37 -25 -68 27 -25 40 -35 45 -48 22 -7 -12 -20
-14 -55 -9 -45 6 -46 7 -52 48 -4 23 -20 61 -35 85 -23 34 -27 49 -21 67 5 12
12 51 16 86 10 90 8 89 77 59z m-2129 -46 c-21 -16 -134 -21 -134 -6 0 16 20
24 79 31 63 7 85 -2 55 -25z m2957 -4 c22 -17 22 -21 9 -46 -13 -23 -19 -26
-50 -21 -19 4 -77 9 -127 12 -90 6 -93 6 -93 -15 0 -20 5 -21 100 -21 107 0
165 -15 177 -46 9 -23 -24 -46 -47 -34 -51 27 -117 41 -229 47 -104 5 -123 4
-119 -8 3 -10 32 -16 109 -20 106 -7 139 -13 222 -45 52 -20 70 -50 42 -70
-23 -17 -115 -28 -170 -20 -63 10 -61 -15 3 -33 64 -18 102 -34 102 -44 0 -5
-7 -15 -16 -24 -14 -14 -55 -15 -114 -1 -29 7 -18 -21 15 -36 19 -9 35 -21 35
-26 0 -12 -7 -12 -49 0 -52 15 -55 3 -10 -40 29 -27 40 -45 37 -62 -6 -47 -69
-36 -126 24 -45 46 -62 45 -42 -1 17 -41 6 -81 -23 -83 -67 -4 -89 5 -112 46
-17 30 -28 24 -40 -19 -13 -53 -22 -65 -46 -65 -32 0 -67 44 -86 109 -22 75
-39 74 -35 -2 9 -147 -77 -178 -109 -39 -15 64 -32 63 -36 -3 -4 -62 -22 -99
-50 -103 -32 -5 -63 50 -63 111 0 40 -3 47 -20 47 -17 0 -20 -7 -20 -42 0 -41
-30 -108 -47 -108 -38 1 -55 74 -40 175 l10 75 61 0 c75 0 115 22 131 70 14
42 40 50 66 21 25 -26 34 -26 52 -1 14 20 15 20 35 -15 24 -40 43 -44 72 -15
24 24 33 25 50 5 7 -9 20 -13 29 -10 19 5 32 -3 47 -30 23 -41 108 -24 135 27
16 31 1 56 -46 73 -35 14 -47 25 -59 56 -10 24 -26 43 -40 49 -13 4 -26 20
-30 34 -3 14 -20 33 -36 43 -27 16 -30 22 -30 68 l0 50 103 1 c56 0 174 5 262
11 237 15 230 15 256 -6z m-4073 -126 c32 -88 32 -107 0 -138 -18 -18 -20 -18
-52 2 -50 32 -59 46 -60 106 0 47 4 58 29 85 16 16 34 30 41 30 6 0 25 -38 42
-85z m2625 -12 c13 -8 8 -50 -8 -63 -13 -11 -21 -8 -46 16 -17 16 -35 37 -41
48 -9 17 -7 18 38 11 27 -4 52 -9 57 -12z m417 -162 l22 -59 54 5 c46 5 54 3
54 -11 0 -9 -12 -21 -26 -26 -30 -12 -104 -13 -119 -2 -22 15 -75 110 -70 124
6 16 45 38 56 32 4 -2 16 -30 29 -63z m-3527 -32 c62 -42 187 -177 187 -201 0
-3 -28 -13 -62 -23 -90 -27 -141 -56 -156 -89 -8 -15 -18 -24 -22 -19 -13 14
-50 147 -42 154 11 10 104 39 126 39 12 0 29 7 39 14 49 37 -5 33 -151 -13
-33 -10 -34 -9 -52 33 -11 23 -29 55 -40 69 -25 32 -20 43 23 56 45 14 113 5
150 -20z m217 -272 c0 -36 -4 -45 -28 -59 -36 -22 -112 -48 -137 -48 -29 1
-55 24 -55 49 0 20 18 32 85 57 11 4 40 15 65 24 68 26 70 25 70 -23z m-88
-378 c53 -11 128 -46 128 -60 0 -4 -12 -14 -26 -24 -23 -15 -41 -16 -123 -10
-142 10 -148 13 -116 75 18 34 46 38 137 19z m964 -164 c60 -8 135 -19 168
-25 141 -27 399 -118 515 -182 31 -17 76 -42 100 -55 43 -24 149 -96 201 -138
43 -34 234 -228 266 -270 125 -164 199 -318 256 -527 19 -73 22 -107 22 -283
0 -182 -2 -209 -26 -300 -72 -280 -178 -460 -401 -680 -104 -102 -225 -197
-322 -251 -440 -247 -896 -326 -1405 -243 -379 62 -764 257 -1015 515 -69 70
-106 113 -135 154 -13 19 -28 40 -32 45 -75 94 -165 289 -202 437 -65 254 -57
474 26 723 37 112 100 239 163 330 67 97 176 225 233 273 26 22 58 50 72 62
125 110 416 272 575 319 22 7 49 16 60 21 42 19 219 54 390 79 99 14 372 12
491 -4z m1209 -2520 c10 -52 17 -96 14 -98 -47 -38 -142 -98 -147 -93 -9 10
-31 96 -32 126 0 17 20 44 68 92 37 37 69 68 73 68 3 0 13 -43 24 -95z m445
-26 c0 -25 -33 -22 -38 4 -2 12 3 17 17 17 15 0 21 -6 21 -21z m-131 -121 c25
-18 25 -45 0 -61 -27 -17 -93 21 -97 56 -2 16 2 35 9 43 12 15 21 11 88 -38z"/>
<path d="M6395 6500 c-9 -14 3 -30 24 -30 27 0 41 -21 41 -61 0 -45 -11 -50
-75 -33 -90 23 -145 28 -145 12 0 -8 22 -18 58 -26 134 -30 142 -33 142 -68 0
-53 -18 -58 -103 -29 -87 29 -97 30 -97 11 0 -11 49 -32 168 -71 13 -5 18
-105 4 -105 -4 0 -23 11 -43 24 -62 42 -150 87 -160 81 -18 -12 -8 -21 51 -50
33 -17 60 -33 60 -37 0 -5 6 -8 13 -8 20 0 67 -53 67 -76 0 -14 -14 -27 -45
-42 -25 -12 -50 -22 -55 -22 -5 0 -46 35 -91 78 -88 84 -99 91 -99 69 0 -8 34
-48 75 -88 63 -62 75 -79 75 -106 0 -29 -3 -33 -28 -33 -21 0 -48 18 -104 70
-42 39 -79 70 -82 70 -3 0 -6 -9 -6 -20 0 -11 3 -20 8 -20 13 0 70 -94 77
-127 9 -42 -2 -73 -25 -73 -20 0 -71 54 -95 100 -9 17 -20 30 -25 30 -15 0
-12 -34 5 -56 14 -18 21 -74 10 -74 -7 0 -88 44 -127 68 -33 20 -51 7 -22 -16
80 -64 98 -89 80 -113 -6 -8 -19 -18 -28 -22 -17 -6 -26 -37 -10 -37 4 0 22 9
40 20 22 14 32 27 32 45 0 21 5 25 28 25 15 0 33 5 40 12 9 9 18 9 37 0 36
-17 52 -15 75 8 13 13 20 33 20 60 0 46 0 46 42 24 43 -22 73 -7 82 40 5 28
13 37 34 43 33 8 94 41 104 57 4 6 8 25 8 41 0 17 7 41 15 55 16 28 19 78 6
99 -5 8 -3 24 5 40 8 14 14 40 14 57 0 17 6 49 14 71 18 52 10 88 -26 118 -31
26 -53 32 -63 15z"/>
<path d="M5795 5981 c-60 -27 -133 -103 -138 -143 -3 -32 17 -32 31 1 17 39
70 91 105 103 15 6 27 14 27 19 0 5 7 9 15 9 8 0 15 7 15 15 0 19 -6 19 -55
-4z"/>
<path d="M2990 4135 c-97 -15 -168 -29 -225 -45 -22 -6 -56 -15 -75 -20 -47
-12 -151 -52 -225 -85 -74 -34 -243 -131 -270 -154 -11 -10 -40 -32 -65 -49
-145 -101 -327 -317 -418 -499 -78 -154 -132 -374 -132 -535 0 -527 325 -1005
852 -1256 97 -46 241 -102 263 -102 8 0 23 -4 33 -9 20 -10 143 -37 276 -61
87 -15 385 -12 514 5 532 70 996 355 1235 760 94 159 149 316 172 496 14 104
15 143 5 244 -13 138 -21 176 -62 300 -78 237 -206 419 -438 624 -55 49 -217
155 -305 199 -96 48 -134 64 -243 102 -72 25 -111 36 -237 66 -143 33 -490 43
-655 19z m610 -40 c41 -9 93 -20 115 -24 91 -20 296 -92 320 -112 5 -5 17 -9
26 -9 10 0 19 -3 21 -7 2 -5 26 -19 53 -33 89 -43 250 -158 339 -241 125 -117
213 -229 283 -359 289 -534 153 -1157 -342 -1575 -60 -51 -228 -165 -243 -165
-6 0 -12 -3 -14 -7 -8 -20 -251 -122 -339 -143 -30 -8 -58 -17 -64 -22 -5 -4
-24 -8 -43 -8 -27 0 -33 3 -28 16 3 9 9 28 12 42 3 15 9 38 14 52 9 29 22 79
46 171 l16 67 67 7 c94 9 147 23 221 58 80 37 177 106 185 131 12 34 -10 39
-51 12 -66 -43 -122 -58 -224 -59 -52 0 -117 5 -143 12 -56 16 -56 17 -21 156
32 124 41 165 55 236 19 97 35 101 70 18 15 -34 40 -65 83 -102 33 -28 63 -55
66 -58 3 -3 47 -43 99 -88 68 -58 98 -78 105 -70 12 11 9 13 -113 119 -177
152 -186 162 -221 228 -33 63 -37 67 -69 67 -38 0 -48 17 -50 82 -1 45 19 54
201 94 64 14 83 8 178 -48 30 -18 69 -39 87 -45 18 -7 33 -17 33 -24 0 -6 6
-17 14 -23 10 -8 20 -5 42 17 16 15 51 45 78 68 48 39 55 64 19 64 -8 0 -27 9
-43 20 -104 74 -302 104 -435 65 -33 -9 -70 -19 -83 -22 -12 -3 -25 -9 -28
-14 -3 -5 -14 -9 -24 -9 -17 0 -18 7 -13 108 4 79 1 132 -12 202 -10 52 -20
145 -24 205 -7 120 -25 168 -75 195 -14 7 -28 22 -32 32 -3 10 -17 32 -31 48
-20 25 -32 30 -68 30 -100 0 -137 -106 -73 -210 15 -24 22 -54 23 -95 1 -33 4
-69 6 -79 3 -15 -4 -22 -27 -29 -32 -9 -22 -14 -244 124 -70 44 -93 68 -140
149 -43 74 -43 77 -44 170 -1 73 -5 102 -18 122 -24 37 -74 45 -138 24 -37
-12 -56 -14 -70 -6 -10 5 -29 10 -42 10 -42 0 -127 -65 -128 -97 0 -7 -11 -13
-24 -13 -17 0 -34 -12 -53 -37 -28 -36 -28 -39 -29 -179 l-1 -143 -43 -85
c-23 -47 -45 -106 -47 -130 -5 -42 11 -116 25 -116 4 0 21 -12 37 -27 l30 -28
-100 -5 c-91 -5 -100 -7 -100 -25 0 -12 9 -21 25 -25 16 -4 26 -14 28 -27 6
-41 -47 -212 -209 -681 -16 -46 -29 -90 -29 -98 0 -14 34 -15 278 -12 l277 3
72 39 c84 44 102 61 85 78 -9 9 -21 9 -47 -1 -27 -10 -84 -11 -241 -5 -112 4
-207 10 -209 14 -3 4 13 54 34 111 21 57 42 118 45 136 4 17 13 36 19 41 7 6
73 12 147 13 136 3 149 6 234 52 27 15 32 15 58 -1 15 -9 28 -20 28 -24 0 -4
7 -8 15 -8 8 0 15 -4 15 -8 0 -12 119 -52 153 -52 15 0 27 -4 27 -9 0 -5 -25
-87 -56 -182 -31 -96 -68 -210 -82 -254 -13 -44 -33 -92 -43 -106 -28 -40 -99
-69 -169 -69 -60 0 -71 5 -122 52 -23 23 -71 23 -90 1 -30 -35 -43 -88 -29
-122 16 -38 81 -71 142 -71 75 0 249 45 269 70 3 3 20 17 39 30 115 80 219
269 290 528 11 41 14 43 39 37 15 -3 31 -11 37 -16 5 -6 13 -51 16 -102 7
-110 34 -171 102 -234 47 -43 115 -83 142 -83 32 0 27 -30 -12 -73 -22 -24
-53 -70 -68 -102 -25 -51 -29 -72 -29 -142 l0 -82 -45 -5 c-232 -27 -260 -28
-416 -16 -88 6 -180 16 -205 21 -112 25 -137 31 -175 41 -81 22 -192 62 -262
94 -40 19 -75 34 -78 34 -21 0 -238 144 -314 209 -245 209 -391 439 -463 728
-18 72 -22 118 -22 253 -1 105 4 187 13 225 21 97 70 244 104 315 83 175 255
380 424 506 21 16 40 31 43 35 7 8 209 129 215 129 3 0 38 15 78 34 147 68
358 127 527 147 108 12 495 2 580 -16z m-534 -506 c16 -18 19 -37 19 -113 0
-90 1 -92 47 -177 28 -50 63 -98 85 -116 40 -31 200 -133 211 -133 4 -1 18
-10 31 -20 l23 -20 -20 -53 c-12 -28 -26 -77 -33 -108 -11 -54 -12 -56 -58
-69 -45 -13 -161 -66 -171 -79 -3 -3 -22 -19 -42 -34 -37 -27 -48 -47 -27 -47
9 0 72 42 89 60 13 13 72 41 133 63 52 19 67 21 67 11 0 -8 -6 -14 -13 -14
-26 0 -46 -36 -87 -165 -87 -267 -81 -255 -117 -255 -81 0 -173 51 -277 154
-68 67 -166 179 -166 189 0 4 49 7 108 7 94 0 117 4 173 26 80 33 90 41 83 69
-6 26 25 80 80 138 42 43 43 47 16 47 -23 0 -88 -79 -117 -139 -10 -22 -22
-42 -28 -44 -5 -1 -44 -1 -85 2 -64 5 -76 9 -84 27 -5 12 -45 43 -88 70 l-79
49 6 45 c3 25 17 68 29 95 13 28 26 58 30 68 8 25 30 16 34 -14 1 -13 12 -45
24 -71 18 -41 30 -52 85 -80 36 -18 67 -36 69 -40 9 -15 24 -8 24 11 0 13 -18
26 -60 45 -79 35 -109 80 -129 190 -6 33 -11 81 -11 106 0 56 -16 97 -65 169
-41 59 -41 82 0 123 49 49 111 43 138 -14 27 -56 30 -108 9 -153 -18 -39 -18
-41 0 -90 60 -160 117 -239 224 -312 37 -26 54 -29 54 -10 0 7 -16 21 -35 31
-81 44 -179 183 -215 304 -11 35 -11 47 1 69 19 35 17 120 -4 160 -17 32 -17
32 10 47 41 22 86 20 109 -5z m-324 -151 c47 -70 58 -92 58 -120 0 -20 -8 -25
-52 -36 -28 -6 -61 -21 -73 -32 -12 -11 -25 -20 -29 -20 -4 0 -6 46 -4 103 3
105 20 157 52 157 7 0 29 -24 48 -52z m914 -30 c11 -13 25 -35 32 -51 6 -15
23 -33 37 -39 52 -23 68 -69 75 -213 4 -73 10 -136 13 -141 18 -30 27 -175 16
-261 -7 -51 -15 -96 -18 -101 -3 -5 -37 -29 -76 -54 -66 -42 -185 -151 -185
-168 0 -5 -6 -15 -12 -22 -15 -15 -52 -91 -63 -125 -7 -26 -31 -29 -59 -8 -15
11 -17 22 -13 52 9 57 81 269 115 343 36 75 30 95 -29 115 l-34 12 1 64 c1 43
9 84 26 124 23 58 26 61 77 77 30 10 56 19 57 21 2 2 -3 19 -12 37 -12 24 -15
47 -11 90 5 45 3 61 -9 71 -27 22 -44 66 -44 113 0 36 5 48 26 65 35 27 66 27
90 -1z m-856 -160 c0 -42 -105 -107 -131 -81 -16 16 16 58 61 80 57 28 70 28
70 1z m20 -66 c0 -5 -8 -17 -19 -26 -33 -30 -75 -136 -79 -201 l-3 -60 80 -50
c45 -27 81 -55 81 -62 0 -10 -28 -13 -112 -13 l-113 0 -54 56 -54 55 6 54 c3
30 19 83 36 118 30 64 31 64 79 71 28 3 67 19 93 35 47 31 59 36 59 23z m-88
-534 c11 -13 41 -48 67 -78 74 -84 103 -120 99 -121 -1 0 -70 -2 -151 -4 -124
-3 -149 -2 -154 11 -3 8 9 59 27 114 32 97 33 100 63 100 18 0 37 -8 49 -22z
m1072 -191 c4 -23 13 -55 21 -71 21 -40 20 -56 -25 -231 -22 -86 -40 -168 -40
-181 0 -39 -27 -40 -66 -3 -34 33 -65 102 -78 171 -9 50 17 170 50 225 25 43
109 133 125 133 4 0 10 -19 13 -43z m-84 -801 c0 -2 -12 -48 -26 -102 -14 -55
-29 -115 -33 -134 -4 -21 -12 -35 -21 -35 -12 0 -15 14 -15 65 0 52 6 77 29
125 17 33 35 65 40 72 10 12 26 17 26 9z"/>
<path d="M2938 4039 c-23 -13 -23 -36 0 -43 13 -4 23 -32 40 -109 25 -115 27
-140 12 -168 -14 -26 15 -38 37 -16 26 26 27 96 3 200 -18 77 -20 100 -10 112
6 8 9 19 5 25 -8 13 -65 13 -87 -1z"/>
<path d="M3215 3979 c-4 -5 0 -18 8 -27 8 -9 26 -51 40 -92 36 -108 50 -104
81 20 9 36 21 69 26 74 6 6 10 16 10 23 0 16 -155 19 -165 2z m103 -47 c2 -12
-1 -22 -7 -22 -13 0 -32 35 -24 44 12 12 28 0 31 -22z"/>
<path d="M3417 3964 c-49 -49 -57 -116 -21 -171 12 -19 24 -23 62 -23 26 0 80
-9 121 -19 40 -11 79 -17 85 -15 7 3 19 -2 26 -11 7 -8 25 -15 41 -15 35 0 72
51 63 87 -4 14 0 29 10 38 26 26 20 64 -10 76 -15 5 -35 7 -45 4 -25 -8 -49
-56 -42 -83 4 -18 1 -22 -16 -22 -21 0 -22 3 -15 45 10 68 1 88 -45 103 -77
23 -97 13 -92 -45 1 -18 -3 -50 -10 -70 -11 -33 -13 -35 -25 -19 -10 14 -16
15 -33 7 -16 -9 -23 -7 -35 11 -20 28 -12 38 29 38 21 0 37 6 43 17 14 24 -4
68 -34 82 -32 14 -27 15 -57 -15z m43 -34 c0 -5 -7 -10 -16 -10 -8 0 -12 5 -9
10 3 6 10 10 16 10 5 0 9 -4 9 -10z m163 -59 c-2 -58 -12 -81 -34 -81 -15 0
-19 5 -15 18 3 9 10 36 16 60 13 50 36 52 33 3z m157 -17 c0 -8 -4 -14 -10
-14 -5 0 -10 9 -10 21 0 11 5 17 10 14 6 -3 10 -13 10 -21z m-104 -81 c-10
-10 -19 5 -10 18 6 11 8 11 12 0 2 -7 1 -15 -2 -18z m64 -4 c0 -11 -7 -19 -16
-19 -11 0 -14 5 -10 16 3 9 6 20 6 25 0 6 5 7 10 4 6 -3 10 -15 10 -26z"/>
<path d="M3085 3955 c-19 -18 -25 -35 -25 -69 0 -25 5 -48 10 -51 6 -3 10 -14
10 -24 0 -20 38 -41 74 -41 67 0 92 120 37 179 -36 38 -73 40 -106 6z m72 -46
c7 -13 13 -41 13 -61 0 -31 -4 -38 -20 -38 -24 0 -46 65 -36 105 8 31 26 29
43 -6z"/>
<path d="M2603 3941 c-26 -22 -30 -51 -8 -51 8 0 19 -9 26 -21 9 -17 7 -25
-10 -43 -33 -35 -37 -78 -12 -129 20 -41 53 -67 85 -67 23 0 73 29 91 54 15
20 24 23 55 19 44 -6 70 15 70 58 0 35 -22 39 -44 7 -16 -22 -16 -22 -31 -3
-20 27 -19 32 12 47 14 7 31 21 37 31 9 15 6 23 -17 43 -32 28 -54 30 -82 8
-16 -12 -20 -25 -18 -67 2 -72 6 -97 15 -97 4 0 8 -4 8 -10 0 -5 -9 -10 -19
-10 -13 0 -19 6 -19 18 2 17 -102 232 -112 232 -3 -1 -15 -9 -27 -19z m217
-86 c0 -8 -7 -15 -15 -15 -8 0 -15 7 -15 15 0 8 7 15 15 15 8 0 15 -7 15 -15z
m-140 -95 c23 -46 26 -70 7 -70 -30 0 -68 74 -52 99 12 20 24 11 45 -29z"/>
<path d="M3924 3818 c-28 -13 -64 -78 -64 -115 0 -16 7 -39 16 -52 14 -20 23
-22 55 -18 36 5 40 3 55 -29 30 -64 118 -43 160 38 23 44 18 84 -13 108 -37
29 -74 21 -117 -25 -18 -19 -47 -38 -65 -41 -29 -6 -31 -5 -31 25 0 56 48 106
64 66 7 -20 42 -19 50 0 15 39 -59 68 -110 43z m178 -128 c-3 -29 -40 -80 -58
-80 -18 0 -18 33 1 70 23 44 62 52 57 10z"/>
<path d="M2372 3669 c-13 -33 -19 -39 -37 -35 -28 7 -75 -36 -75 -69 0 -15 6
-25 14 -25 14 0 76 -66 76 -81 0 -5 -9 -13 -21 -19 -17 -10 -26 -6 -57 22 -23
21 -36 41 -34 53 1 11 -2 26 -7 34 -8 12 -12 12 -25 2 -13 -11 -19 -11 -31 -1
-22 19 -27 8 -20 -44 6 -37 11 -46 27 -46 11 0 43 -20 71 -45 29 -25 58 -45
66 -45 7 0 24 10 36 23 12 12 36 34 54 49 37 31 37 51 0 56 -13 2 -36 17 -50
34 -23 28 -25 34 -14 55 17 32 24 30 44 -9 10 -18 34 -42 53 -53 30 -16 40
-17 62 -7 56 25 59 111 6 164 -23 23 -37 28 -75 28 -45 0 -47 -1 -63 -41z m97
-30 c29 -29 39 -58 25 -72 -19 -18 -91 61 -80 88 8 22 21 18 55 -16z"/>
<path d="M4196 3683 c-3 -4 -6 -16 -6 -27 -1 -29 -50 -83 -83 -91 -37 -10 -34
-25 16 -62 23 -17 66 -54 96 -82 42 -39 58 -48 68 -40 7 7 13 18 13 27 0 8 18
34 40 58 24 26 40 53 40 68 0 25 -23 56 -42 56 -6 0 -26 18 -44 39 -32 37 -85
66 -98 54z m59 -83 c9 -14 -56 -90 -77 -90 -26 0 -22 11 18 58 37 43 48 49 59
32z m65 -65 c0 -20 -59 -85 -77 -85 -23 0 -14 33 19 67 34 35 58 43 58 18z"/>
<path d="M2088 3415 c-18 -15 -30 -38 -34 -64 -6 -40 -6 -41 21 -41 34 0 105
-55 105 -82 0 -11 5 -18 12 -16 13 5 106 118 107 130 1 4 -14 14 -33 22 -18 7
-52 28 -76 45 -51 37 -66 38 -102 6z m107 -69 c32 -28 38 -37 28 -47 -10 -10
-21 -7 -55 18 -24 17 -44 38 -46 47 -6 27 30 18 73 -18z"/>
<path d="M4489 3430 c-112 -34 -155 -156 -81 -233 16 -18 39 -51 51 -74 21
-43 51 -51 51 -14 0 11 18 27 44 40 l43 23 27 -27 c14 -14 26 -28 26 -31 0
-15 -71 -44 -107 -44 -50 0 -55 -15 -23 -68 11 -18 20 -41 20 -52 0 -24 38
-60 63 -60 11 0 35 11 53 25 18 14 39 25 47 25 8 0 25 8 37 18 19 16 21 22 11
40 -6 12 -20 26 -30 32 -22 11 -81 3 -81 -12 0 -5 -10 -8 -22 -6 -36 5 -21 21
40 44 31 11 57 25 59 30 2 6 -8 21 -22 34 -14 13 -25 32 -25 43 0 29 -47 87
-71 87 -10 0 -19 -6 -19 -14 0 -17 -89 -78 -101 -70 -16 9 -10 20 17 32 35 17
20 33 -27 30 -44 -2 -45 -2 -54 33 -5 21 2 34 45 77 46 46 56 52 94 52 35 0
45 -4 56 -25 11 -20 10 -28 -3 -49 -22 -34 -3 -45 31 -18 18 13 26 28 24 43
-8 76 -85 116 -173 89z m219 -452 c-6 -18 -28 -21 -28 -4 0 9 7 16 16 16 9 0
14 -5 12 -12z m-88 -13 c0 -8 -7 -15 -15 -15 -16 0 -20 12 -8 23 11 12 23 8
23 -8z"/>
<path d="M1986 3268 c-28 -39 -20 -86 19 -124 19 -18 38 -47 41 -63 6 -30 5
-31 -28 -31 -42 0 -94 45 -64 56 23 9 21 54 -2 54 -43 0 -69 -73 -39 -110 64
-82 187 -78 187 6 0 19 -4 34 -10 34 -5 0 -10 5 -10 10 0 6 13 10 29 10 34 0
61 30 61 67 0 13 -18 43 -41 68 -37 40 -46 45 -85 45 -33 0 -46 -5 -58 -22z
m118 -67 c46 -48 -9 -56 -67 -10 -36 27 -34 39 6 39 24 0 41 -8 61 -29z"/>
<path d="M2337 3128 c-4 -51 -9 -121 -13 -155 -6 -54 -4 -63 9 -63 19 0 24 36
30 198 4 84 2 112 -8 112 -8 0 -14 -29 -18 -92z"/>
<path d="M4747 3155 c-23 -17 -14 -55 12 -55 27 0 47 28 35 48 -14 22 -26 24
-47 7z"/>
<path d="M1855 2992 c-6 -4 -16 -23 -23 -43 -23 -66 -10 -117 23 -89 9 7 20 8
32 2 10 -5 35 -12 56 -16 45 -8 50 -29 5 -24 -36 3 -52 -20 -19 -29 15 -4 21
-13 21 -34 0 -31 -17 -36 -68 -23 -25 7 -27 39 -2 39 33 0 12 29 -30 43 -25 8
-47 19 -50 23 -3 4 -24 11 -47 15 l-42 6 -6 -38 c-3 -22 -10 -49 -16 -62 -13
-33 -11 -59 5 -65 7 -3 18 -1 24 5 8 8 38 6 107 -7 85 -16 98 -21 106 -42 15
-41 33 -21 51 58 10 41 30 113 45 161 14 48 24 90 22 93 -3 2 -27 6 -53 7 -29
1 -50 7 -53 15 -5 14 -71 18 -88 5z m98 -58 c26 -9 47 -22 47 -30 0 -17 -16
-18 -75 -2 -32 9 -45 17 -45 30 0 22 13 22 73 2z m-150 -134 c9 -11 17 -25 17
-30 0 -11 -39 -13 -64 -4 -19 7 -21 40 -3 47 23 10 32 7 50 -13z"/>
<path d="M4736 2915 c-3 -8 -9 -14 -13 -13 -14 3 -78 -14 -92 -26 -7 -6 -21
-11 -30 -11 -26 0 -24 -38 3 -64 21 -20 23 -27 13 -48 -9 -20 -7 -31 7 -58 19
-34 40 -45 88 -45 33 0 78 19 95 40 20 24 15 74 -9 99 -19 21 -28 23 -90 19
-59 -5 -68 -3 -68 12 0 24 85 43 105 24 18 -18 45 -18 45 0 0 8 12 23 28 35
27 19 27 20 7 35 -26 20 -81 21 -89 1z m44 -171 c0 -16 -56 -44 -90 -44 -29 0
-38 30 -15 46 27 20 105 19 105 -2z"/>
<path d="M3871 2166 c-15 -35 -34 -92 -40 -128 -14 -82 -14 -88 3 -88 15 0 26
30 26 75 0 32 21 99 45 146 17 32 19 59 5 59 -5 0 -23 -29 -39 -64z"/>
<path d="M3905 2036 c-24 -36 -32 -96 -12 -96 17 0 27 20 27 55 0 13 5 27 10
30 13 8 13 35 0 35 -5 0 -17 -11 -25 -24z"/>
<path d="M3787 1670 c-3 -8 -8 -48 -11 -88 -4 -40 -7 -78 -9 -85 -1 -7 5 -12
13 -12 20 0 38 145 22 178 -8 17 -11 19 -15 7z"/>
<path d="M1110 6629 c0 -34 27 -123 50 -163 39 -70 47 -80 105 -135 169 -159
197 -204 199 -316 1 -38 -3 -94 -7 -122 -5 -35 -4 -53 2 -53 18 0 26 51 26
160 0 97 -2 109 -29 157 -16 29 -72 94 -128 148 -114 111 -151 163 -180 260
-23 78 -38 103 -38 64z"/>
<path d="M1120 6000 c0 -17 -13 -55 -29 -85 -40 -75 -49 -149 -25 -215 19 -52
39 -78 51 -66 4 3 -3 24 -15 45 -34 59 -30 143 8 216 30 56 41 135 20 135 -5
0 -10 -14 -10 -30z"/>
<path d="M1558 1873 c-2 -22 -20 -38 -95 -86 -81 -52 -94 -57 -112 -45 -11 7
-23 9 -27 6 -7 -8 17 -68 28 -68 5 0 8 -5 8 -10 0 -18 38 -53 49 -45 7 3 10
18 9 31 -2 18 5 29 24 41 26 16 27 16 53 -15 15 -18 35 -32 46 -32 13 0 19 -7
19 -24 0 -24 16 -36 50 -36 25 0 36 -19 20 -33 -10 -9 -14 -9 -17 1 -3 6 -15
12 -27 12 -12 0 -27 5 -33 11 -17 17 -54 6 -75 -22 -16 -20 -17 -30 -8 -53 5
-15 19 -30 30 -33 11 -3 20 -14 20 -24 0 -11 11 -24 24 -30 14 -7 27 -21 31
-33 8 -27 71 -80 86 -71 6 4 8 17 5 30 -5 18 3 31 34 59 22 20 44 36 50 36 15
0 24 -51 12 -69 -48 -67 -51 -112 -11 -160 16 -20 32 -26 79 -29 57 -4 58 -5
64 -37 7 -34 36 -75 54 -75 16 0 24 -18 17 -40 -4 -14 -15 -20 -36 -20 -43 0
-36 -24 17 -55 50 -29 82 -28 63 3 -9 14 -4 28 30 79 23 34 41 65 41 68 0 12
41 65 51 65 15 0 10 -23 -17 -79 -37 -78 -19 -131 44 -131 11 0 22 -7 26 -15
3 -8 18 -15 32 -15 15 0 35 -6 43 -14 31 -27 107 -54 124 -44 13 7 17 5 17
-12 0 -17 6 -20 44 -20 25 0 48 -4 51 -10 10 -16 75 -12 75 4 0 8 -5 16 -12
18 -8 3 -6 23 7 76 18 69 18 72 0 92 -30 33 -135 21 -135 -15 0 -23 31 -31 45
-12 20 28 46 21 42 -10 -3 -26 -8 -28 -50 -31 -37 -2 -51 -8 -63 -28 -9 -13
-20 -24 -25 -24 -15 0 -9 32 20 105 16 39 27 73 24 78 -2 4 -22 7 -45 7 -37 0
-40 -2 -34 -23 6 -27 -26 -119 -44 -125 -8 -3 -19 3 -26 12 -10 15 -8 28 17
79 38 82 37 94 -8 106 -42 12 -64 1 -44 -23 9 -11 8 -23 -5 -57 -23 -57 -41
-70 -73 -50 -10 7 -7 22 18 75 38 83 38 94 4 102 -16 4 -45 23 -66 43 -36 34
-41 36 -107 36 -69 0 -70 0 -70 26 0 15 -3 40 -6 57 -6 29 -4 31 27 34 26 2
35 8 37 26 3 20 -1 22 -35 22 -21 -1 -49 -7 -63 -15 -14 -8 -37 -14 -52 -15
-25 0 -28 4 -28 31 0 22 -5 32 -20 36 -11 3 -20 11 -20 17 0 7 -20 23 -45 35
-35 17 -45 28 -45 46 0 26 -35 65 -57 65 -20 0 -16 14 12 40 37 34 34 85 -8
148 -19 27 -37 57 -40 66 -10 26 -35 19 -39 -11z m59 -99 c14 -37 -40 -84 -80
-68 -31 11 -27 34 11 59 42 29 60 31 69 9z m-49 -256 c-3 -7 -13 -13 -23 -13
-10 0 -20 6 -22 13 -3 7 5 12 22 12 17 0 25 -5 23 -12z m120 -37 c-26 -33 -67
-71 -76 -71 -5 0 -13 8 -17 18 -9 24 73 96 92 80 11 -9 11 -14 1 -27z m195
-171 c-2 -47 -55 -96 -90 -83 -20 8 -15 58 9 89 30 39 38 43 62 34 16 -6 21
-16 19 -40z m175 -106 c3 -23 -45 -104 -63 -104 -38 0 -46 63 -14 104 26 33
72 33 77 0z m440 -311 c-2 -10 -10 -18 -18 -18 -8 0 -16 8 -18 18 -2 12 3 17
18 17 15 0 20 -5 18 -17z"/>
<path d="M4812 1485 c-6 -13 -30 -36 -52 -51 -32 -21 -44 -37 -53 -71 l-11
-44 -39 7 c-34 5 -43 2 -68 -22 -16 -15 -29 -36 -29 -46 0 -14 -6 -16 -28 -12
-19 4 -34 0 -45 -10 -8 -9 -21 -16 -28 -16 -13 0 -59 -50 -59 -64 0 -5 -13 -6
-30 -3 -49 10 -126 -67 -99 -99 19 -23 39 -16 46 16 6 33 28 40 36 11 3 -12
-6 -28 -24 -46 -32 -29 -36 -60 -14 -89 18 -24 74 -26 87 -3 5 10 20 17 33 17
13 0 27 4 30 10 3 5 31 22 61 37 30 14 59 32 65 39 14 18 3 33 -19 27 -14 -3
-25 9 -46 47 -29 53 -27 63 11 74 18 6 25 1 37 -23 22 -41 54 -61 97 -61 29 0
43 7 63 31 14 17 26 41 26 55 0 22 4 24 49 24 42 0 53 4 70 26 12 15 21 33 21
40 0 8 8 14 18 14 22 0 97 74 88 88 -3 6 -15 8 -26 5 -11 -3 -20 -1 -20 5 0 5
-9 12 -20 15 -11 3 -23 13 -27 23 -8 21 -64 73 -79 74 -6 0 -16 -11 -22 -25z
m66 -98 c23 -23 42 -46 42 -50 0 -4 -12 -6 -27 -5 -22 2 -29 -2 -31 -18 -6
-46 -80 -36 -106 13 -18 36 -5 63 30 63 17 0 28 7 31 20 7 28 13 26 61 -23z
m-238 -121 c0 -14 -29 -31 -38 -22 -2 3 -2 12 1 21 8 19 37 20 37 1z m84 -12
c16 -6 23 -34 8 -34 -4 0 -12 -10 -17 -22 -12 -28 -56 -35 -75 -13 -7 8 -11
17 -9 18 2 2 19 15 37 30 38 30 35 29 56 21z m-253 -162 c16 -29 29 -55 29
-57 0 -3 -11 -5 -25 -5 -21 0 -30 10 -50 54 -30 66 -30 68 -4 64 13 -2 31 -23
50 -56z m-76 -92 c0 -13 -6 -25 -12 -27 -16 -6 -27 21 -19 43 9 23 31 11 31
-16z"/>
<path d="M2400 1155 c0 -34 2 -36 28 -33 23 3 27 8 27 33 0 25 -4 30 -27 33
-26 3 -28 1 -28 -33z"/>
<path d="M3886 1068 c-3 -13 -13 -77 -22 -142 -17 -129 -21 -146 -35 -146 -5
0 -9 -7 -9 -16 0 -14 8 -15 48 -9 26 4 50 9 55 12 13 8 8 33 -7 33 -18 0 -23
15 -18 51 4 27 24 39 64 39 25 0 49 -50 35 -72 -22 -33 9 -34 119 -2 16 4 23
0 27 -16 3 -12 1 -31 -6 -41 -18 -28 -3 -32 57 -15 35 11 56 22 56 31 0 8 -9
15 -20 15 -18 0 -40 26 -40 48 0 5 10 14 23 21 36 19 67 73 67 117 0 57 -47
108 -93 101 -68 -12 -93 -20 -125 -44 -26 -20 -31 -28 -21 -39 6 -8 18 -14 25
-14 8 0 14 -8 14 -18 0 -10 4 -22 9 -27 16 -19 31 -79 22 -88 -18 -18 -44 11
-116 124 -74 116 -100 140 -109 97z m319 -64 c11 -11 15 -30 13 -58 -3 -35 -6
-41 -28 -44 -23 -3 -27 3 -41 50 -9 29 -14 56 -12 61 8 13 51 7 68 -9z m-260
-64 c0 -7 -6 -15 -12 -17 -8 -3 -13 4 -13 17 0 13 5 20 13 18 6 -3 12 -11 12
-18z"/>
<path d="M2705 1070 c-5 -8 1 -19 15 -30 l22 -17 -19 -109 c-16 -99 -20 -109
-40 -112 -60 -9 6 -52 80 -52 32 0 37 25 6 35 -19 6 -20 12 -15 53 11 82 18
103 28 100 11 -4 75 -114 104 -176 13 -30 39 -51 49 -40 3 2 12 42 20 89 29
161 35 179 57 179 13 0 18 6 16 17 -3 19 -88 39 -117 28 -13 -5 -12 -9 8 -24
23 -18 24 -22 15 -81 -5 -35 -14 -65 -21 -67 -6 -2 -32 34 -58 81 -25 47 -54
94 -63 106 -21 25 -76 37 -87 20z"/>
<path d="M3234 1001 c-56 -34 -52 -117 7 -149 62 -34 80 -53 77 -81 -3 -22 -8
-26 -38 -29 -30 -2 -37 2 -52 28 -25 44 -49 40 -45 -7 3 -48 13 -59 63 -67 76
-13 134 30 134 99 0 46 -10 58 -77 95 -45 25 -57 42 -48 71 11 33 52 23 74
-18 6 -13 18 -23 26 -23 12 0 14 9 9 43 -4 23 -8 44 -10 46 -2 2 -22 5 -46 8
-31 3 -52 -1 -74 -16z"/>
<path d="M3582 918 c-29 -18 -35 -19 -48 -6 -11 11 -27 13 -67 7 -29 -4 -60
-8 -69 -8 -22 -1 -25 -41 -3 -41 12 0 15 -14 15 -65 0 -37 -4 -65 -10 -65 -5
0 -10 -9 -10 -20 0 -18 7 -20 60 -20 52 0 60 2 60 19 0 10 -9 21 -20 24 -17 4
-20 14 -20 62 l0 58 53 -5 c60 -6 77 -2 77 18 0 8 9 14 20 14 13 0 20 -7 20
-20 0 -13 -7 -20 -20 -20 -13 0 -20 -7 -20 -19 0 -13 -8 -21 -22 -23 -36 -5
-38 -61 -3 -84 22 -14 32 -15 58 -6 18 6 42 9 55 5 14 -3 30 1 42 12 20 18 17
45 -5 45 -14 0 -25 43 -25 95 0 62 -57 83 -118 43z m68 -127 c0 -20 -26 -36
-35 -21 -8 13 6 40 21 40 8 0 14 -9 14 -19z"/>
<path d="M3007 774 c-17 -17 -6 -55 19 -66 30 -14 46 2 42 42 -2 18 -10 26
-28 28 -14 2 -29 0 -33 -4z"/>
</g>
</svg>
